<svg width="555" height="416" viewBox="0 0 555 416" fill="none" xmlns="http://www.w3.org/2000/svg">
<path d="M69.2399 331.705L68.3218 331.498C78.5587 285.973 104.285 244.633 140.761 215.091C168.339 192.792 201.138 177.878 236.071 171.754C271.003 165.629 306.919 168.496 340.438 180.085C373.957 191.673 403.975 211.601 427.665 237.993C451.356 264.385 467.94 296.372 475.856 330.943L474.939 331.151C453.269 236.004 369.88 169.553 272.152 169.553C175.704 169.553 90.3676 237.747 69.2399 331.705Z" fill="#3F3D56"/>
<path d="M504.769 310.034L506.181 320.385L496.299 321.327L497.711 308.622L504.769 310.034Z" fill="#FFDBC4"/>
<path d="M504.769 310.034L506.181 320.385L496.299 321.327L497.711 308.622L504.769 310.034Z" fill="url(#paint0_linear_509_472)" fill-opacity="0.6" style="mix-blend-mode:overlay"/>
<path d="M458.186 167.933C458.186 167.933 459.127 180.637 459.127 181.108C459.127 181.578 452.539 214.045 452.539 214.045C452.539 214.045 443.129 231.926 452.539 231.455C461.95 230.985 459.127 214.516 459.127 214.516L469.008 187.225L464.773 167.933H458.186Z" fill="#FFDBC4"/>
<path d="M458.186 167.933C458.186 167.933 459.127 180.637 459.127 181.108C459.127 181.578 452.539 214.045 452.539 214.045C452.539 214.045 443.129 231.926 452.539 231.455C461.95 230.985 459.127 214.516 459.127 214.516L469.008 187.225L464.773 167.933H458.186Z" fill="url(#paint1_linear_509_472)" fill-opacity="0.6" style="mix-blend-mode:overlay"/>
<path d="M473.714 310.034L472.302 320.385L482.184 321.327L480.772 308.622L473.714 310.034Z" fill="#FFDBC4"/>
<path d="M473.714 310.034L472.302 320.385L482.184 321.327L480.772 308.622L473.714 310.034Z" fill="url(#paint2_linear_509_472)" fill-opacity="0.6" style="mix-blend-mode:overlay"/>
<path d="M462.891 213.104L460.539 216.397C460.539 216.397 459.127 230.514 460.539 235.219C461.95 239.924 464.773 261.569 464.773 262.981C464.773 264.392 465.244 265.333 464.773 265.804C464.303 266.274 462.891 266.274 463.832 267.215C464.773 268.156 464.773 270.98 464.773 270.98V273.332L470.89 308.152C470.89 308.152 467.126 312.387 469.949 312.387C472.772 312.387 483.124 312.387 482.654 307.681L481.713 307.211C481.713 307.211 480.301 276.156 480.772 274.744C481.242 273.332 480.772 270.509 480.772 270.509C480.772 270.509 479.831 269.097 480.772 268.627C481.713 268.156 481.713 264.392 481.713 264.392L485.947 235.689C485.947 235.689 489.712 254.981 492.064 256.864C494.417 258.746 493.947 263.451 493.947 263.451L495.829 304.858C495.829 304.858 493.947 309.564 495.829 310.505C497.711 311.446 505.71 314.74 506.181 310.034C506.651 305.329 509.004 264.392 509.004 262.51C509.004 260.628 508.533 259.687 509.004 258.275C509.474 256.864 508.533 256.864 509.004 256.864C509.474 256.864 508.063 255.452 508.063 254.511V231.455C508.063 231.455 508.533 226.749 509.004 225.808C509.474 224.867 508.533 223.926 509.004 222.514C509.474 221.103 508.063 216.397 508.063 216.397L486.889 210.751L462.891 213.104Z" fill="#2F2E41"/>
<path d="M479.36 318.503C479.36 318.503 481.713 316.15 478.419 316.15C476.305 316.194 474.222 316.674 472.302 317.562L469.949 326.032C469.949 326.032 460.303 333.796 471.126 332.854C481.948 331.913 480.301 332.619 480.301 332.619C480.301 332.619 483.595 331.678 484.066 330.737C484.536 329.796 483.124 316.15 483.124 316.15C483.124 316.15 481.713 319.915 479.36 318.503Z" fill="#2F2E41"/>
<path d="M499.594 318.503C499.594 318.503 497.241 316.15 500.535 316.15C502.649 316.194 504.732 316.674 506.652 317.562L509.004 326.032C509.004 326.032 518.65 333.796 507.828 332.854C497.006 331.913 497.241 332.619 497.241 332.619C497.241 332.619 493.947 331.678 493.477 330.737C493.006 329.796 495.829 316.15 495.829 316.15C495.829 316.15 497.241 319.915 499.594 318.503Z" fill="#2F2E41"/>
<path d="M148.829 166.488H144.64V331.954H148.829V166.488Z" fill="#3F3D56"/>
<path d="M187.489 187.575C187.756 245.434 147.048 292.527 147.048 292.527C147.048 292.527 105.909 245.811 105.642 187.952C105.376 130.093 146.083 83 146.083 83C146.083 83 187.222 129.716 187.489 187.575Z" fill="#ADD9AD"/>
<path d="M187.489 187.575C187.756 245.434 147.048 292.527 147.048 292.527C147.048 292.527 105.909 245.811 105.642 187.952C105.376 130.093 146.083 83 146.083 83C146.083 83 187.222 129.716 187.489 187.575Z" fill="url(#paint3_linear_509_472)" fill-opacity="0.8" style="mix-blend-mode:overlay"/>
<path d="M440.306 263.45H116.106V332.149H440.306V263.45Z" fill="#FFE8DB"/>
<path d="M105.754 270.979L141.044 197.104H422.896L449.246 270.979H105.754Z" fill="#F79C91"/>
<path d="M105.754 270.979L141.044 197.104H422.896L449.246 270.979H105.754Z" fill="url(#paint4_linear_509_472)" style="mix-blend-mode:overlay"/>
<path d="M324.553 201.811H193.744V245.1H324.553V201.811Z" fill="#FFE8DB"/>
<path d="M202.214 166.521L181.51 209.81H336.787L324.553 166.521H202.214Z" fill="#F79C91"/>
<path d="M202.214 166.521L181.51 209.81H336.787L324.553 166.521H202.214Z" fill="url(#paint5_linear_509_472)" style="mix-blend-mode:overlay"/>
<path d="M308.555 277.097H205.272V332.149H308.555V277.097Z" fill="#CCCCCC"/>
<path d="M183.863 278.979H128.811V332.149H183.863V278.979Z" fill="#CCCCCC"/>
<path d="M354.903 282.272H326.436V332.149H354.903V282.272Z" fill="#484848"/>
<path d="M545 331.914H10V332.855H545V331.914Z" fill="#3F3D56"/>
<path d="M97.4161 222.776H94.6519V331.966H97.4161V222.776Z" fill="#3F3D56"/>
<path d="M122.927 236.692C123.103 274.873 96.2409 305.949 96.2409 305.949C96.2409 305.949 69.0933 275.122 68.9174 236.941C68.7414 198.76 95.6037 167.684 95.6037 167.684C95.6037 167.684 122.751 198.511 122.927 236.692Z" fill="#5ABA47"/>
<path d="M122.927 236.692C123.103 274.873 96.2409 305.949 96.2409 305.949C96.2409 305.949 69.0933 275.122 68.9174 236.941C68.7414 198.76 95.6037 167.684 95.6037 167.684C95.6037 167.684 122.751 198.511 122.927 236.692Z" fill="#ADD9AD"/>
<path d="M122.927 236.692C123.103 274.873 96.2409 305.949 96.2409 305.949C96.2409 305.949 69.0933 275.122 68.9174 236.941C68.7414 198.76 95.6037 167.684 95.6037 167.684C95.6037 167.684 122.751 198.511 122.927 236.692Z" fill="url(#paint6_linear_509_472)" fill-opacity="0.8" style="mix-blend-mode:overlay"/>
<path d="M61.4801 222.776H58.7158V331.966H61.4801V222.776Z" fill="#3F3D56"/>
<path d="M86.9917 236.692C87.1677 274.873 60.3054 305.949 60.3054 305.949C60.3054 305.949 33.1578 275.122 32.9818 236.941C32.8059 198.76 59.6681 167.684 59.6681 167.684C59.6681 167.684 86.8157 198.511 86.9917 236.692Z" fill="#ADD9AD"/>
<path d="M86.9917 236.692C87.1677 274.873 60.3054 305.949 60.3054 305.949C60.3054 305.949 33.1578 275.122 32.9818 236.941C32.8059 198.76 59.6681 167.684 59.6681 167.684C59.6681 167.684 86.8157 198.511 86.9917 236.692Z" fill="url(#paint7_linear_509_472)" fill-opacity="0.8" style="mix-blend-mode:overlay"/>
<path d="M385.959 285.331H399.369V297.8H385.959V285.331Z" fill="white" stroke="black" stroke-width="0.470537"/>
<path d="M404.545 285.331H417.955V297.8H404.545V285.331Z" fill="white" stroke="black" stroke-width="0.470537"/>
<path d="M385.959 302.976H399.369V315.915H385.959V302.976Z" fill="white" stroke="black" stroke-width="0.470537"/>
<path d="M404.545 302.976H417.955V315.915H404.545V302.976Z" fill="white" stroke="black" stroke-width="0.470537"/>
<path d="M216.606 213.656H205.743V223.783H216.606V213.656Z" fill="#3F3D56"/>
<path d="M231.152 213.656H220.289V223.783H231.152V213.656Z" fill="#3F3D56"/>
<path d="M216.606 227.465H205.743V237.96H216.606V227.465Z" fill="#3F3D56"/>
<path d="M231.152 227.465H220.289V237.96H231.152V227.465Z" fill="#3F3D56"/>
<path d="M298.009 213.656H287.146V223.783H298.009V213.656Z" fill="#3F3D56"/>
<path d="M312.555 213.656H301.691V223.783H312.555V213.656Z" fill="#3F3D56"/>
<path d="M298.009 227.465H287.146V237.96H298.009V227.465Z" fill="#3F3D56"/>
<path d="M312.555 227.465H301.691V237.96H312.555V227.465Z" fill="#3F3D56"/>
<path d="M257.543 213.656H246.68V223.783H257.543V213.656Z" fill="#3F3D56"/>
<path d="M272.089 213.656H261.226V223.783H272.089V213.656Z" fill="#3F3D56"/>
<path d="M257.543 227.465H246.68V237.96H257.543V227.465Z" fill="#3F3D56"/>
<path d="M272.089 227.465H261.226V237.96H272.089V227.465Z" fill="#3F3D56"/>
<path d="M339.628 287.326H332.788V293.702H339.628V287.326Z" fill="#F2F2F2"/>
<path d="M348.786 287.326H341.946V293.702H348.786V287.326Z" fill="#F2F2F2"/>
<path d="M339.628 296.021H332.788V302.628H339.628V296.021Z" fill="#F2F2F2"/>
<path d="M348.786 296.021H341.946V302.628H348.786V296.021Z" fill="#F2F2F2"/>
<path d="M351.139 312.622C352.178 312.622 353.021 311.779 353.021 310.74C353.021 309.7 352.178 308.857 351.139 308.857C350.1 308.857 349.257 309.7 349.257 310.74C349.257 311.779 350.1 312.622 351.139 312.622Z" fill="#F2F2F2"/>
<path d="M308.79 282.979H205.272V283.92H308.79V282.979Z" fill="#F2F2F2"/>
<path d="M308.79 287.213H205.272V288.154H308.79V287.213Z" fill="#F2F2F2"/>
<path d="M308.79 291.447H205.272V292.388H308.79V291.447Z" fill="#F2F2F2"/>
<path d="M308.79 295.683H205.272V296.624H308.79V295.683Z" fill="#F2F2F2"/>
<path d="M308.79 299.917H205.272V300.858H308.79V299.917Z" fill="#F2F2F2"/>
<path d="M308.79 304.151H205.272V305.092H308.79V304.151Z" fill="#F2F2F2"/>
<path d="M308.79 308.388H205.272V309.329H308.79V308.388Z" fill="#F2F2F2"/>
<path d="M308.79 312.622H205.272V313.563H308.79V312.622Z" fill="#F2F2F2"/>
<path d="M308.79 316.856H205.272V317.798H308.79V316.856Z" fill="#F2F2F2"/>
<path d="M308.79 321.092H205.272V322.033H308.79V321.092Z" fill="#F2F2F2"/>
<path d="M308.79 325.326H205.272V326.267H308.79V325.326Z" fill="#F2F2F2"/>
<path d="M183.863 282.979H128.811V283.92H183.863V282.979Z" fill="#F2F2F2"/>
<path d="M183.863 287.213H128.811V288.154H183.863V287.213Z" fill="#F2F2F2"/>
<path d="M183.863 291.447H128.811V292.388H183.863V291.447Z" fill="#F2F2F2"/>
<path d="M183.863 295.683H128.811V296.624H183.863V295.683Z" fill="#F2F2F2"/>
<path d="M183.863 299.917H128.811V300.858H183.863V299.917Z" fill="#F2F2F2"/>
<path d="M183.863 304.151H128.811V305.092H183.863V304.151Z" fill="#F2F2F2"/>
<path d="M183.863 308.388H128.811V309.329H183.863V308.388Z" fill="#F2F2F2"/>
<path d="M183.863 312.622H128.811V313.563H183.863V312.622Z" fill="#F2F2F2"/>
<path d="M183.863 316.856H128.811V317.798H183.863V316.856Z" fill="#F2F2F2"/>
<path d="M183.863 321.092H128.811V322.033H183.863V321.092Z" fill="#F2F2F2"/>
<path d="M183.863 325.326H128.811V326.267H183.863V325.326Z" fill="#F2F2F2"/>
<path d="M451.843 191.699C451.843 211.192 436.041 226.994 416.548 226.994C397.055 226.994 381.253 211.192 381.253 191.699C381.253 172.206 397.055 156.404 416.548 156.404C436.041 156.404 451.843 172.206 451.843 191.699Z" fill="#FFD480"/>
<path d="M451.843 191.699C451.843 211.192 436.041 226.994 416.548 226.994C397.055 226.994 381.253 211.192 381.253 191.699C381.253 172.206 397.055 156.404 416.548 156.404C436.041 156.404 451.843 172.206 451.843 191.699Z" stroke="black" stroke-width="0.941073" style="mix-blend-mode:overlay"/>
<path d="M429.106 185.599L427.929 189.956H405.79L406.991 185.599H429.106ZM418.084 211.341L406.473 197.634L406.449 193.866H412.055C413.421 193.866 414.543 193.615 415.423 193.112C416.318 192.594 416.985 191.895 417.425 191.016C417.88 190.137 418.108 189.148 418.108 188.048C418.108 186.902 417.903 185.89 417.495 185.01C417.087 184.115 416.435 183.417 415.54 182.914C414.646 182.412 413.46 182.161 411.984 182.161H405.814L407.156 177.05H411.984C414.779 177.05 417.103 177.474 418.955 178.322C420.824 179.154 422.221 180.371 423.148 181.972C424.09 183.558 424.561 185.473 424.561 187.719C424.561 189.681 424.231 191.416 423.572 192.924C422.928 194.415 421.884 195.632 420.439 196.574C418.995 197.516 417.095 198.144 414.74 198.458L425.267 211.011V211.341H418.084ZM429.13 177.05L427.929 181.407H409.723L410.924 177.05H429.13Z" fill="white"/>
<path d="M464.773 127.465C464.773 127.465 466.656 136.876 466.656 138.287C466.656 139.699 474.655 143.934 474.655 143.934L483.595 132.641C483.595 132.641 477.948 124.642 477.948 122.76L464.773 127.465Z" fill="#FFDBC4"/>
<path d="M464.773 127.465C464.773 127.465 466.656 136.876 466.656 138.287C466.656 139.699 474.655 143.934 474.655 143.934L483.595 132.641C483.595 132.641 477.948 124.642 477.948 122.76L464.773 127.465Z" fill="black" fill-opacity="0.4" style="mix-blend-mode:overlay"/>
<path d="M469.008 130.76C475.765 130.76 481.242 125.283 481.242 118.526C481.242 111.769 475.765 106.292 469.008 106.292C462.252 106.292 456.774 111.769 456.774 118.526C456.774 125.283 462.252 130.76 469.008 130.76Z" fill="#FFDBC4"/>
<path d="M469.008 130.76C475.765 130.76 481.242 125.283 481.242 118.526C481.242 111.769 475.765 106.292 469.008 106.292C462.252 106.292 456.774 111.769 456.774 118.526C456.774 125.283 462.252 130.76 469.008 130.76Z" fill="url(#paint8_radial_509_472)" fill-opacity="0.6" style="mix-blend-mode:overlay"/>
<path d="M458.186 148.641L453.48 151.934C453.48 151.934 451.128 158.992 453.48 162.286C455.833 165.58 456.774 170.285 456.774 170.285L466.185 169.344L458.186 148.641Z" fill="#5ABA47"/>
<path d="M471.831 139.7C471.831 139.7 467.73 138.608 466.487 136.801C466.487 136.801 453.48 149.581 453.48 151.934L463.832 170.285C463.832 170.285 463.832 176.872 464.773 177.343C465.714 177.813 464.773 177.343 464.773 179.225C464.773 181.107 461.95 193.341 462.891 195.223C463.832 197.105 464.773 195.694 463.832 198.517C462.891 201.34 460.539 216.397 460.539 216.397C460.539 216.397 469.008 213.574 481.242 218.279C493.476 222.985 508.063 216.397 508.063 216.397C508.063 216.397 504.298 207.928 505.239 205.104C506.181 202.281 502.887 197.105 502.887 197.105L500.534 153.816C500.534 153.816 503.828 134.524 501.475 133.583L496.77 131.701L481.701 129.849C481.701 129.849 477.948 139.229 471.831 139.7Z" fill="#5ABA47"/>
<path d="M471.831 139.7C471.831 139.7 467.73 138.608 466.487 136.801C466.487 136.801 453.48 149.581 453.48 151.934L463.832 170.285C463.832 170.285 463.832 176.872 464.773 177.343C465.714 177.813 464.773 177.343 464.773 179.225C464.773 181.107 461.95 193.341 462.891 195.223C463.832 197.105 464.773 195.694 463.832 198.517C462.891 201.34 460.539 216.397 460.539 216.397C460.539 216.397 469.008 213.574 481.242 218.279C493.476 222.985 508.063 216.397 508.063 216.397C508.063 216.397 504.298 207.928 505.239 205.104C506.181 202.281 502.887 197.105 502.887 197.105L500.534 153.816C500.534 153.816 503.828 134.524 501.475 133.583L496.77 131.701L481.701 129.849C481.701 129.849 477.948 139.229 471.831 139.7Z" fill="url(#paint9_linear_509_472)" fill-opacity="0.4" style="mix-blend-mode:overlay"/>
<path d="M493.006 152.875C493.006 152.875 490.281 159.882 490.85 166.814C490.955 168.055 491.372 169.25 492.065 170.285V170.285L458.683 186.133C458.683 186.133 443.6 187.695 447.364 194.282C451.128 200.87 464.774 190.988 464.774 190.988C464.774 190.988 500.535 185.813 503.358 180.637C506.181 175.461 508.063 153.816 508.063 153.816L493.006 152.875Z" fill="#FFDBC4"/>
<path d="M493.006 152.875C493.006 152.875 490.281 159.882 490.85 166.814C490.955 168.055 491.372 169.25 492.065 170.285V170.285L458.683 186.133C458.683 186.133 443.6 187.695 447.364 194.282C451.128 200.87 464.774 190.988 464.774 190.988C464.774 190.988 500.535 185.813 503.358 180.637C506.181 175.461 508.063 153.816 508.063 153.816L493.006 152.875Z" fill="url(#paint10_linear_509_472)" fill-opacity="0.6" style="mix-blend-mode:overlay"/>
<path d="M459.668 105.597L457.546 104.747C457.546 104.747 461.983 99.8621 468.157 100.287L466.42 98.3754C466.42 98.3754 470.665 96.6762 474.523 101.136C476.551 103.481 478.898 106.237 480.361 109.342H482.634L481.685 111.43L485.005 113.519L481.598 113.144C481.92 114.947 481.81 116.801 481.275 118.553L481.367 120.204C481.367 120.204 477.417 114.092 477.417 113.243V115.367C477.417 115.367 475.295 113.455 475.295 112.181L474.137 113.668L473.558 111.331L466.42 113.668L467.578 111.756L463.141 112.393L464.877 110.057C464.877 110.057 459.861 112.818 459.668 115.154C459.475 117.491 456.967 120.464 456.967 120.464L455.81 118.34C455.81 118.34 454.074 108.783 459.668 105.597Z" fill="#2F2E41"/>
<path d="M494.417 133.582C497.05 132.767 501.475 133.582 501.475 133.582C501.475 133.582 506.651 134.523 508.063 143.934C509.475 153.345 510.886 155.697 509.475 155.697C508.063 155.697 491.124 155.227 491.124 154.756C491.124 154.286 486.424 136.058 494.417 133.582Z" fill="#5ABA47"/>
<path d="M494.417 133.582C497.05 132.767 501.475 133.582 501.475 133.582C501.475 133.582 506.651 134.523 508.063 143.934C509.475 153.345 510.886 155.697 509.475 155.697C508.063 155.697 491.124 155.227 491.124 154.756C491.124 154.286 486.424 136.058 494.417 133.582Z" fill="url(#paint11_linear_509_472)" fill-opacity="0.6" style="mix-blend-mode:overlay"/>
<defs>
<linearGradient id="paint0_linear_509_472" x1="497.117" y1="325.938" x2="515.076" y2="317.163" gradientUnits="userSpaceOnUse">
<stop/>
<stop offset="1" stop-opacity="0"/>
</linearGradient>
<linearGradient id="paint1_linear_509_472" x1="450.066" y1="254.524" x2="486.857" y2="245.209" gradientUnits="userSpaceOnUse">
<stop/>
<stop offset="1" stop-opacity="0"/>
</linearGradient>
<linearGradient id="paint2_linear_509_472" x1="473.12" y1="325.938" x2="491.078" y2="317.163" gradientUnits="userSpaceOnUse">
<stop/>
<stop offset="1" stop-opacity="0"/>
</linearGradient>
<linearGradient id="paint3_linear_509_472" x1="131.869" y1="133.583" x2="226.749" y2="175.674" gradientUnits="userSpaceOnUse">
<stop/>
<stop offset="1" stop-opacity="0"/>
</linearGradient>
<linearGradient id="paint4_linear_509_472" x1="278.02" y1="276.625" x2="278.02" y2="187.067" gradientUnits="userSpaceOnUse">
<stop stop-opacity="0.4"/>
<stop offset="1" stop-opacity="0"/>
</linearGradient>
<linearGradient id="paint5_linear_509_472" x1="259.384" y1="228.396" x2="259.384" y2="146.052" gradientUnits="userSpaceOnUse">
<stop stop-opacity="0.4"/>
<stop offset="1" stop-opacity="0"/>
</linearGradient>
<linearGradient id="paint6_linear_509_472" x1="75.8748" y1="197.811" x2="144.525" y2="221.858" gradientUnits="userSpaceOnUse">
<stop/>
<stop offset="1" stop-opacity="0"/>
</linearGradient>
<linearGradient id="paint7_linear_509_472" x1="21.7634" y1="187.224" x2="80.7926" y2="301.212" gradientUnits="userSpaceOnUse">
<stop/>
<stop offset="1" stop-opacity="0"/>
</linearGradient>
<radialGradient id="paint8_radial_509_472" cx="0" cy="0" r="1" gradientUnits="userSpaceOnUse" gradientTransform="translate(465.479 118.761) rotate(52.9269) scale(13.2692)">
<stop/>
<stop offset="1" stop-opacity="0"/>
</radialGradient>
<linearGradient id="paint9_linear_509_472" x1="381.018" y1="198.517" x2="490.182" y2="209.104" gradientUnits="userSpaceOnUse">
<stop/>
<stop offset="1" stop-opacity="0"/>
</linearGradient>
<linearGradient id="paint10_linear_509_472" x1="451.834" y1="212.398" x2="529.473" y2="143.935" gradientUnits="userSpaceOnUse">
<stop/>
<stop offset="1" stop-opacity="0"/>
</linearGradient>
<linearGradient id="paint11_linear_509_472" x1="482.419" y1="121.113" x2="511.827" y2="156.639" gradientUnits="userSpaceOnUse">
<stop stop-opacity="0.6"/>
<stop offset="1" stop-opacity="0"/>
</linearGradient>
</defs>
</svg>
