<svg width="555" height="416" viewBox="0 0 555 416" fill="none" xmlns="http://www.w3.org/2000/svg">
<g clip-path="url(#clip0_509_471)">
<path fill-rule="evenodd" clip-rule="evenodd" d="M321.012 302.543C348.57 250.575 390.867 162.953 390.867 123.001C390.867 77.7131 354.342 41 302.174 41C250.006 41 207.716 77.7131 207.716 123.001C204.074 159.817 238.827 222.201 266.632 272.113C272.685 282.978 278.409 293.253 283.336 302.543C285.205 306.07 287.937 309.007 291.249 311.052C294.561 313.097 298.333 314.175 302.174 314.175C306.016 314.175 309.787 313.097 313.099 311.052C316.411 309.007 319.143 306.07 321.012 302.543ZM349.625 127.032C349.625 155.443 326.593 178.474 298.182 178.474C269.772 178.474 246.74 155.443 246.74 127.032C246.74 98.6217 269.772 75.5904 298.182 75.5904C326.593 75.5904 349.625 98.6217 349.625 127.032Z" fill="#6FBF60"/>
<path fill-rule="evenodd" clip-rule="evenodd" d="M321.012 302.543C348.57 250.575 390.867 162.953 390.867 123.001C390.867 77.7131 354.342 41 302.174 41C250.006 41 207.716 77.7131 207.716 123.001C204.074 159.817 238.827 222.201 266.632 272.113C272.685 282.978 278.409 293.253 283.336 302.543C285.205 306.07 287.937 309.007 291.249 311.052C294.561 313.097 298.333 314.175 302.174 314.175C306.016 314.175 309.787 313.097 313.099 311.052C316.411 309.007 319.143 306.07 321.012 302.543ZM349.625 127.032C349.625 155.443 326.593 178.474 298.182 178.474C269.772 178.474 246.74 155.443 246.74 127.032C246.74 98.6217 269.772 75.5904 298.182 75.5904C326.593 75.5904 349.625 98.6217 349.625 127.032Z" fill="url(#paint0_radial_509_471)" fill-opacity="0.4" style="mix-blend-mode:overlay"/>
<g filter="url(#filter0_f_509_471)">
<path d="M87.9631 178.013C104.98 178.013 118.775 164.218 118.775 147.201C118.775 130.185 104.98 116.39 87.9631 116.39C70.9462 116.39 57.1514 130.185 57.1514 147.201C57.1514 164.218 70.9462 178.013 87.9631 178.013Z" fill="#FFCAA8"/>
</g>
<path d="M302.184 374.794C343.376 374.794 376.768 372.217 376.768 369.037C376.768 365.857 343.376 363.279 302.184 363.279C260.992 363.279 227.6 365.857 227.6 369.037C227.6 372.217 260.992 374.794 302.184 374.794Z" fill="#5ABA47"/>
<path d="M302.184 374.794C343.376 374.794 376.768 372.217 376.768 369.037C376.768 365.857 343.376 363.279 302.184 363.279C260.992 363.279 227.6 365.857 227.6 369.037C227.6 372.217 260.992 374.794 302.184 374.794Z" fill="#ADD9AD"/>
<path d="M302.184 374.794C343.376 374.794 376.768 372.217 376.768 369.037C376.768 365.857 343.376 363.279 302.184 363.279C260.992 363.279 227.6 365.857 227.6 369.037C227.6 372.217 260.992 374.794 302.184 374.794Z" fill="url(#paint1_linear_509_471)" fill-opacity="0.8" style="mix-blend-mode:overlay"/>
<path d="M478.912 263.204C339.318 210.875 169.063 261.891 70.7639 366.247C70.2052 366.833 69.6464 367.427 69.1054 368.021H67.6064C68.1209 367.427 68.653 366.833 69.1763 366.247C169.515 253.953 337.509 209.198 478.912 263.204Z" fill="white"/>
<path d="M517.059 280.56C504.72 273.98 491.979 268.183 478.912 263.203C492.013 268.101 504.76 273.9 517.059 280.56V280.56Z" fill="#3F3D56"/>
<path d="M442.824 358.452C444.327 364.006 449.473 367.445 449.473 367.445C449.473 367.445 452.183 361.88 450.681 356.327C449.178 350.773 444.032 347.333 444.032 347.333C444.032 347.333 441.322 352.898 442.824 358.452Z" fill="#3F3D56"/>
<path d="M445.032 357.258C449.155 361.271 449.658 367.44 449.658 367.44C449.658 367.44 443.478 367.103 439.355 363.09C435.233 359.077 434.729 352.907 434.729 352.907C434.729 352.907 440.91 353.245 445.032 357.258Z" fill="#5ABA47"/>
<path d="M445.032 357.258C449.155 361.271 449.658 367.44 449.658 367.44C449.658 367.44 443.478 367.103 439.355 363.09C435.233 359.077 434.729 352.907 434.729 352.907C434.729 352.907 440.91 353.245 445.032 357.258Z" fill="#ADD9AD"/>
<path d="M445.032 357.258C449.155 361.271 449.658 367.44 449.658 367.44C449.658 367.44 443.478 367.103 439.355 363.09C435.233 359.077 434.729 352.907 434.729 352.907C434.729 352.907 440.91 353.245 445.032 357.258Z" fill="url(#paint2_linear_509_471)" fill-opacity="0.8" style="mix-blend-mode:overlay"/>
<path d="M264.113 316.707L260.444 310.592L296.852 280.472C328.724 280.469 350.193 280.472 381.11 280.472L382.759 289.798L350.957 324.047L314.262 331.385L264.113 316.707Z" fill="#3F3D56"/>
<path d="M264.113 316.707L260.444 310.592L296.852 280.472C328.724 280.469 350.193 280.472 381.11 280.472L382.759 289.798L350.957 324.047L314.262 331.385L264.113 316.707Z" fill="#F79C91"/>
<path d="M264.113 316.707L260.444 310.592L296.852 280.472C328.724 280.469 350.193 280.472 381.11 280.472L382.759 289.798L350.957 324.047L314.262 331.385L264.113 316.707Z" fill="url(#paint3_linear_509_471)" style="mix-blend-mode:overlay"/>
<path d="M397.918 298.461C404 291.696 404.845 285.263 397.918 279.323H386.388V285.358L382.759 281.234L353.403 310.589L348.51 315.482L342.395 339.945L353.403 366.854H409.667V311.812L397.918 298.461Z" fill="#FFE8DB"/>
<path d="M397.918 298.461C404 291.696 404.845 285.263 397.918 279.323H386.388V285.358L382.759 281.234L353.403 310.589L348.51 315.482L342.395 339.945L353.403 366.854H409.667V311.812L397.918 298.461Z" fill="black" fill-opacity="0.4" style="mix-blend-mode:overlay"/>
<path d="M260.444 310.589H353.403V366.854H260.444C249.197 354.686 255.04 332.509 260.444 310.589Z" fill="#FFE8DB"/>
<path d="M340.56 328.324H320.99V345.448H340.56V328.324Z" fill="#484848"/>
<path d="M313.04 327.713H295.916V366.854H313.04V327.713Z" fill="#484848"/>
<path d="M276.345 333.828V327.713H269.006V333.828H275.733H276.345Z" fill="#484848"/>
<path d="M275.733 338.721H269.006V344.837H276.345V338.721H275.733Z" fill="#484848"/>
<path d="M288.576 327.713H281.237V333.829H288.576V327.713Z" fill="#484848"/>
<path d="M288.576 338.721H281.237V344.836H288.576V338.721Z" fill="#484848"/>
<path d="M379.701 334.44V328.324H372.361V334.44H379.089H379.701Z" fill="#484848"/>
<path d="M379.089 339.333H372.361V345.448H379.701V339.333H379.089Z" fill="#484848"/>
<path d="M391.933 328.324H384.594V334.44H391.933V328.324Z" fill="#484848"/>
<path d="M391.933 339.332H384.594V345.448H391.933V339.332Z" fill="#484848"/>
<path d="M98.5927 213.96H75.562L126.725 178.488H213.568V205.398L157.304 243.316L98.5927 213.96Z" fill="#74BBCA"/>
<path d="M98.5927 213.96H75.562L126.725 178.488H213.568V205.398L157.304 243.316L98.5927 213.96Z" fill="url(#paint4_linear_509_471)" style="mix-blend-mode:overlay"/>
<path d="M229.401 195.642V179.099H217.871V183.151L213.568 178.488L185.435 209.067L174.427 216.406L157.358 341.112L183.1 366.853H242.923C252.09 320.743 259.358 273.376 242.923 210.29L229.401 195.642Z" fill="#C5D7DB"/>
<path d="M92.4765 209.067H185.436V366.853H92.4765C82.3042 305.555 77.3361 248.709 92.4765 209.067Z" fill="white"/>
<path d="M92.4765 209.067H185.436V366.853H92.4765C82.3042 305.555 77.3361 248.709 92.4765 209.067Z" fill="#74BBCA" fill-opacity="0.1" style="mix-blend-mode:multiply"/>
<path d="M145.684 328.324H128.56V366.853H145.684V328.324Z" fill="#CCCCCC"/>
<path d="M110.212 339.333V333.218H102.874V339.333H109.601H110.212Z" fill="#3F3D56"/>
<path d="M109.601 344.226H102.874V350.342H110.212V344.226H109.601Z" fill="#3F3D56"/>
<path d="M122.443 333.218H115.104V339.334H122.443V333.218Z" fill="#3F3D56"/>
<path d="M159.75 344.226H153.022V350.342H160.361V344.226H159.75Z" fill="#3F3D56"/>
<path d="M172.592 333.218H165.253V339.334H172.592V333.218Z" fill="#3F3D56"/>
<path d="M172.592 344.226H165.253V350.341H172.592V344.226Z" fill="#3F3D56"/>
<path d="M211.733 217.018V210.902H204.394V217.018H211.121H211.733Z" fill="#3F3D56"/>
<path d="M211.121 221.911H204.394V228.027H211.733V221.911H211.121Z" fill="#3F3D56"/>
<path d="M223.965 210.902H216.626V217.018H223.965V210.902Z" fill="#3F3D56"/>
<path d="M223.965 221.911H216.626V228.027H223.965V221.911Z" fill="#3F3D56"/>
<path d="M211.733 251.267V245.15H204.394V251.267H211.121H211.733Z" fill="#3F3D56"/>
<path d="M211.121 256.159H204.394V262.275H211.733V256.159H211.121Z" fill="#3F3D56"/>
<path d="M223.965 245.15H216.626V251.266H223.965V245.15Z" fill="#3F3D56"/>
<path d="M223.965 256.159H216.626V262.275H223.965V256.159Z" fill="#3F3D56"/>
<path d="M211.733 285.515V279.398H204.394V285.515H211.121H211.733Z" fill="#3F3D56"/>
<path d="M211.121 290.407H204.394V296.523H211.733V290.407H211.121Z" fill="#3F3D56"/>
<path d="M223.965 279.398H216.626V285.514H223.965V279.398Z" fill="#3F3D56"/>
<path d="M223.965 290.406H216.626V296.522H223.965V290.406Z" fill="#3F3D56"/>
<path d="M211.733 319.763V313.646H204.394V319.763H211.121H211.733Z" fill="#3F3D56"/>
<path d="M211.121 324.655H204.394V330.771H211.733V324.655H211.121Z" fill="#3F3D56"/>
<path d="M223.965 313.646H216.626V319.762H223.965V313.646Z" fill="#3F3D56"/>
<path d="M223.965 324.654H216.626V330.77H223.965V324.654Z" fill="#3F3D56"/>
<path d="M102.873 217.018H173.816V231.695C151.076 225.42 127.364 225.87 102.873 231.695V217.018Z" fill="#3F3D56"/>
<path d="M102.873 246.373C125.015 252.897 148.662 252.897 173.816 246.373V261.051H102.873V246.373Z" fill="#3F3D56"/>
<path d="M102.873 275.729H173.816V290.406C149.639 282.686 125.966 282.322 102.873 290.406V275.729Z" fill="#3F3D56"/>
<path d="M102.873 305.084C126.01 314.001 149.678 313.63 173.816 305.084V319.762H102.873V305.084Z" fill="#3F3D56"/>
<path d="M484.154 279.585H534V303.603L529.547 304.996L514.736 309.619L491.498 304.236L468.287 298.857L456.03 296.017L449.91 293.753C455.001 286.768 464.26 281.274 484.154 279.585Z" fill="#3F3D56"/>
<path d="M534 293.753V366.855H449.91C449.883 366.809 449.865 366.768 449.839 366.723V366.719C449.819 366.668 449.795 366.619 449.768 366.571C448.455 363.929 447.278 361.294 446.238 358.665C437.413 336.422 438.371 314.767 449.91 293.753H534Z" fill="#F2F2F2"/>
<path d="M503.117 328.324H485.993V366.853H503.117V328.324Z" fill="#CCCCCC"/>
<path d="M467.646 339.333V333.218H460.307V339.333H467.035H467.646Z" fill="#3F3D56"/>
<path d="M467.035 344.226H460.307V350.342H467.646V344.226H467.035Z" fill="#3F3D56"/>
<path d="M479.877 333.218H472.539V339.334H479.877V333.218Z" fill="#3F3D56"/>
<path d="M479.877 344.226H472.539V350.341H479.877V344.226Z" fill="#3F3D56"/>
<path d="M517.795 339.333V333.218H510.456V339.333H517.183H517.795Z" fill="#3F3D56"/>
<path d="M517.183 344.226H510.456V350.342H517.795V344.226H517.183Z" fill="#3F3D56"/>
<path d="M530.026 333.218H522.688V339.334H530.026V333.218Z" fill="#3F3D56"/>
<path d="M530.026 344.226H522.688V350.341H530.026V344.226Z" fill="#3F3D56"/>
<path d="M468.289 251.203H478.831C489.228 251.203 499.2 255.333 506.552 262.686C513.904 270.038 518.035 280.009 518.035 290.407V290.407H468.289V251.203Z" fill="#3F3D56"/>
<path d="M518.035 305.085H468.289V319.763H518.035V305.085Z" fill="#3F3D56"/>
<path d="M534 366.247H28.4487V368.021H534V366.247Z" fill="#3F3D56"/>
<path d="M75.0751 296.175H73.3013V366.242H75.0751V296.175Z" fill="#3F3D56"/>
<path d="M43.9101 297.199H42.1362V367.267H43.9101V297.199Z" fill="#3F3D56"/>
<path d="M91.4459 305.104C91.5589 329.605 74.3212 349.547 74.3212 349.547C74.3212 349.547 52.2461 329.341 56.7875 305.264C61.3548 281.05 75.5896 260.924 73.9122 260.821C73.9122 260.821 91.333 280.603 91.4459 305.104Z" fill="#5ABA47"/>
<path d="M91.4459 305.104C91.5589 329.605 74.3212 349.547 74.3212 349.547C74.3212 349.547 52.2461 329.341 56.7875 305.264C61.3548 281.05 75.5896 260.924 73.9122 260.821C73.9122 260.821 91.333 280.603 91.4459 305.104Z" fill="#ADD9AD"/>
<path d="M91.4459 305.104C91.5589 329.605 74.3212 349.547 74.3212 349.547C74.3212 349.547 52.2461 329.341 56.7875 305.264C61.3548 281.05 75.5896 260.924 73.9122 260.821C73.9122 260.821 91.333 280.603 91.4459 305.104Z" fill="url(#paint5_linear_509_471)" fill-opacity="0.8" style="mix-blend-mode:overlay"/>
<path d="M63.6309 297.688C63.7653 326.842 43.2536 350.571 43.2536 350.571C43.2536 350.571 16.9858 326.527 22.3898 297.878C27.8246 269.065 44.7629 245.116 42.767 244.994C42.767 244.994 63.4965 268.533 63.6309 297.688Z" fill="#5ABA47"/>
<path d="M63.6309 297.688C63.7653 326.842 43.2536 350.571 43.2536 350.571C43.2536 350.571 16.9858 326.527 22.3898 297.878C27.8246 269.065 44.7629 245.116 42.767 244.994C42.767 244.994 63.4965 268.533 63.6309 297.688Z" fill="#ADD9AD"/>
<path d="M63.6309 297.688C63.7653 326.842 43.2536 350.571 43.2536 350.571C43.2536 350.571 16.9858 326.527 22.3898 297.878C27.8246 269.065 44.7629 245.116 42.767 244.994C42.767 244.994 63.4965 268.533 63.6309 297.688Z" fill="url(#paint6_linear_509_471)" fill-opacity="0.8" style="mix-blend-mode:overlay"/>
<path d="M252.461 296.175H250.688V366.242H252.461V296.175Z" fill="#3F3D56"/>
<path d="M268.832 305.104C270.431 329.553 251.708 349.547 251.708 349.547C251.708 349.547 234.287 329.765 234.174 305.264C234.061 280.763 251.299 260.821 251.299 260.821C249.618 267.537 267.539 285.322 268.832 305.104Z" fill="#5ABA47"/>
<path d="M268.832 305.104C270.431 329.553 251.708 349.547 251.708 349.547C251.708 349.547 234.287 329.765 234.174 305.264C234.061 280.763 251.299 260.821 251.299 260.821C249.618 267.537 267.539 285.322 268.832 305.104Z" fill="#ADD9AD"/>
<path d="M268.832 305.104C270.431 329.553 251.708 349.547 251.708 349.547C251.708 349.547 234.287 329.765 234.174 305.264C234.061 280.763 251.299 260.821 251.299 260.821C249.618 267.537 267.539 285.322 268.832 305.104Z" fill="url(#paint7_linear_509_471)" fill-opacity="0.8" style="mix-blend-mode:overlay"/>
<path d="M126.561 178.509H214.267L246.589 205.488L252.061 210.648L189.089 212.621L126.561 178.509Z" fill="#74BBCA"/>
<path d="M126.561 178.509H214.267L246.589 205.488L252.061 210.648L189.089 212.621L126.561 178.509Z" fill="url(#paint8_linear_509_471)" style="mix-blend-mode:overlay"/>
<path d="M296.408 280.507H381.11L415.106 307.486L409.392 312.646L358.208 311.494L296.408 280.507Z" fill="#3F3D56"/>
<path d="M296.408 280.507H381.11L415.106 307.486L409.392 312.646L358.208 311.494L296.408 280.507Z" fill="#F79C91"/>
<path d="M296.408 280.507H381.11L415.106 307.486L409.392 312.646L358.208 311.494L296.408 280.507Z" fill="url(#paint9_linear_509_471)" style="mix-blend-mode:overlay"/>
</g>
<defs>
<filter id="filter0_f_509_471" x="-4.93389" y="54.3044" width="185.794" height="185.794" filterUnits="userSpaceOnUse" color-interpolation-filters="sRGB">
<feFlood flood-opacity="0" result="BackgroundImageFix"/>
<feBlend mode="normal" in="SourceGraphic" in2="BackgroundImageFix" result="shape"/>
<feGaussianBlur stdDeviation="31.0426" result="effect1_foregroundBlur_509_471"/>
</filter>
<radialGradient id="paint0_radial_509_471" cx="0" cy="0" r="1" gradientUnits="userSpaceOnUse" gradientTransform="translate(299 126) rotate(86.4458) scale(80.6551)">
<stop/>
<stop offset="1" stop-opacity="0"/>
</radialGradient>
<linearGradient id="paint1_linear_509_471" x1="275.4" y1="366.059" x2="276.352" y2="380.062" gradientUnits="userSpaceOnUse">
<stop/>
<stop offset="1" stop-opacity="0"/>
</linearGradient>
<linearGradient id="paint2_linear_509_471" x1="439.513" y1="356.416" x2="448.286" y2="366.65" gradientUnits="userSpaceOnUse">
<stop/>
<stop offset="1" stop-opacity="0"/>
</linearGradient>
<linearGradient id="paint3_linear_509_471" x1="321.787" y1="335.817" x2="321.787" y2="265.473" gradientUnits="userSpaceOnUse">
<stop stop-opacity="0.4"/>
<stop offset="1" stop-opacity="0"/>
</linearGradient>
<linearGradient id="paint4_linear_509_471" x1="150.837" y1="237.457" x2="118.166" y2="175.118" gradientUnits="userSpaceOnUse">
<stop stop-opacity="0"/>
<stop offset="1" stop-opacity="0.4"/>
</linearGradient>
<linearGradient id="paint5_linear_509_471" x1="67.4754" y1="282.241" x2="108.127" y2="300.595" gradientUnits="userSpaceOnUse">
<stop/>
<stop offset="1" stop-opacity="0"/>
</linearGradient>
<linearGradient id="paint6_linear_509_471" x1="35.1077" y1="270.482" x2="83.48" y2="292.322" gradientUnits="userSpaceOnUse">
<stop/>
<stop offset="1" stop-opacity="0"/>
</linearGradient>
<linearGradient id="paint7_linear_509_471" x1="245.311" y1="282.241" x2="285.563" y2="300.148" gradientUnits="userSpaceOnUse">
<stop/>
<stop offset="1" stop-opacity="0"/>
</linearGradient>
<linearGradient id="paint8_linear_509_471" x1="229.445" y1="219.273" x2="196.214" y2="176.275" gradientUnits="userSpaceOnUse">
<stop stop-opacity="0"/>
<stop offset="1" stop-opacity="0.4"/>
</linearGradient>
<linearGradient id="paint9_linear_509_471" x1="353.615" y1="309.741" x2="343.859" y2="272.933" gradientUnits="userSpaceOnUse">
<stop stop-opacity="0"/>
<stop offset="1" stop-opacity="0.4"/>
</linearGradient>
<clipPath id="clip0_509_471">
<rect width="555" height="416" fill="white"/>
</clipPath>
</defs>
</svg>
